<svg width="1600" height="1000" viewBox="0 0 1600 1000" fill="none" xmlns="http://www.w3.org/2000/svg">
  <defs>
    <linearGradient id="bg" x1="0" y1="0" x2="1600" y2="1000" gradientUnits="userSpaceOnUse">
      <stop stop-color="#F5F1E7"/>
      <stop offset="1" stop-color="#EEE8DB"/>
    </linearGradient>
    <linearGradient id="header" x1="24" y1="24" x2="1576" y2="98" gradientUnits="userSpaceOnUse">
      <stop stop-color="#12344D"/>
      <stop offset="1" stop-color="#184963"/>
    </linearGradient>
    <linearGradient id="phaseFill" x1="0" y1="0" x2="0" y2="560" gradientUnits="userSpaceOnUse">
      <stop stop-color="#FCFBF7"/>
      <stop offset="1" stop-color="#F1EADF"/>
    </linearGradient>
    <linearGradient id="ledgerFill" x1="0" y1="0" x2="0" y2="274" gradientUnits="userSpaceOnUse">
      <stop stop-color="#F8F3EA"/>
      <stop offset="1" stop-color="#EEE6D7"/>
    </linearGradient>
    <style>
      .title { font-family: 'DejaVu Sans', 'Liberation Sans', 'Segoe UI', sans-serif; font-size: 27px; font-weight: 700; fill: #F9F5EA; }
      .subtitle { font-family: 'DejaVu Sans', 'Liberation Sans', 'Segoe UI', sans-serif; font-size: 14px; font-weight: 500; fill: #CDE1E8; }
      .panel-title { font-family: 'DejaVu Sans', 'Liberation Sans', 'Segoe UI', sans-serif; font-size: 24px; font-weight: 700; fill: #12344D; }
      .panel-kicker { font-family: 'DejaVu Sans', 'Liberation Sans', 'Segoe UI', sans-serif; font-size: 12px; font-weight: 600; fill: #397282; letter-spacing: 0.12em; }
      .card-title { font-family: 'DejaVu Sans', 'Liberation Sans', 'Segoe UI', sans-serif; font-size: 16px; font-weight: 700; fill: #17344A; }
      .card-text { font-family: 'DejaVu Sans', 'Liberation Sans', 'Segoe UI', sans-serif; font-size: 13px; font-weight: 500; fill: #355160; }
      .small { font-family: 'DejaVu Sans', 'Liberation Sans', 'Segoe UI', sans-serif; font-size: 12px; font-weight: 500; fill: #486674; }
      .micro { font-family: 'DejaVu Sans', 'Liberation Sans', 'Segoe UI', sans-serif; font-size: 11px; font-weight: 500; fill: #5A727C; }
      .mono { font-family: 'DejaVu Sans Mono', 'Liberation Mono', 'Consolas', monospace; font-size: 11px; font-weight: 500; fill: #325061; }
      .score { font-family: 'DejaVu Sans', 'Liberation Sans', 'Segoe UI', sans-serif; font-size: 46px; font-weight: 800; fill: #0F6156; }
      .score-label { font-family: 'DejaVu Sans', 'Liberation Sans', 'Segoe UI', sans-serif; font-size: 13px; font-weight: 600; fill: #4E696F; }
      .metric { font-family: 'DejaVu Sans', 'Liberation Sans', 'Segoe UI', sans-serif; font-size: 22px; font-weight: 700; fill: #12344D; }
      .badge-text { font-family: 'DejaVu Sans', 'Liberation Sans', 'Segoe UI', sans-serif; font-size: 13px; font-weight: 700; fill: #17445B; }
      .selected-text { font-family: 'DejaVu Sans', 'Liberation Sans', 'Segoe UI', sans-serif; font-size: 11px; font-weight: 700; fill: #F5F4EE; }
      .recommend-text { font-family: 'DejaVu Sans', 'Liberation Sans', 'Segoe UI', sans-serif; font-size: 24px; font-weight: 700; fill: #0F7A67; }
      .ok { fill: #0F7A67; }
      .warn { fill: #BD7A29; }
      .danger { fill: #AF5147; }
      .ink { fill: #17344A; }
      .light-ink { fill: #5A727C; }
      .border { stroke: #31576C; stroke-width: 2; }
      .soft-border { stroke: #8AA4AB; stroke-width: 1.2; }
      .node { fill: #F9F6EF; stroke: #2D6372; stroke-width: 1.5; }
      .phase { fill: url(#phaseFill); stroke: #31576C; stroke-width: 2.2; }
      .ledger { fill: url(#ledgerFill); stroke: #31576C; stroke-width: 2.2; }
      .chip { fill: #DDEDEA; stroke: #5E918E; stroke-width: 1; }
      .chip-warm { fill: #F7E8CD; stroke: #C58935; stroke-width: 1; }
      .chip-muted { fill: #E5EDF0; stroke: #88A6B2; stroke-width: 1; }
      .pill { fill: #113E56; }
      .table-head { fill: #E4EDF0; }
      .table-row { fill: #FBFAF6; stroke: #D4D7CF; stroke-width: 0.8; }
      .accent-line { stroke: #0F7A67; stroke-width: 2.2; }
      .flow-line { stroke: #3C6E7D; stroke-width: 2; fill: none; stroke-linecap: round; stroke-linejoin: round; }
    </style>
  </defs>

  <rect width="1600" height="1000" fill="url(#bg)"/>

  <rect x="24" y="24" width="1552" height="74" rx="22" fill="url(#header)"/>
  <text x="48" y="69" class="title">Guixu | VLDB 2026 Demo Cockpit</text>
  <text x="1036" y="68" class="subtitle">Discovery, valuation, execution, and decentralized asset memory</text>
  <rect x="1370" y="42" width="176" height="36" rx="18" fill="#F3E8C8"/>
  <text x="1394" y="65" class="badge-text">Academic Demo View</text>

  <rect x="32" y="118" width="520" height="560" rx="24" class="phase"/>
  <text x="56" y="154" class="panel-kicker">Phase 1</text>
  <text x="56" y="184" class="panel-title">Agent Planning &amp; Step-wise Discovery</text>

  <rect x="56" y="212" width="472" height="64" rx="16" fill="#FBF8F1" class="soft-border"/>
  <text x="76" y="238" class="card-title">1. Natural-Language Task</text>
  <text x="76" y="260" class="card-text">"Train a helmet-detection model with a $10 budget."</text>
  <rect x="421" y="226" width="83" height="28" rx="14" class="chip"/>
  <text x="441" y="245" class="small">Preset A</text>

  <rect x="56" y="294" width="214" height="110" rx="18" class="node"/>
  <text x="74" y="322" class="card-title">2. Agent Resource Snapshot</text>
  <text x="74" y="347" class="card-text">CPU: 8 cores</text>
  <text x="74" y="368" class="card-text">Memory: 16 GB</text>
  <text x="74" y="389" class="card-text">GPU: RTX 4090</text>
  <rect x="164" y="354" width="88" height="28" rx="14" class="chip-warm"/>
  <text x="184" y="373" class="small">$10 budget</text>

  <rect x="284" y="294" width="244" height="110" rx="18" class="node"/>
  <text x="302" y="322" class="card-title">3. Intent Parsing</text>
  <text x="302" y="347" class="card-text">Task Type: object detection</text>
  <text x="302" y="368" class="card-text">Constraint: bbox annotations</text>
  <text x="302" y="389" class="card-text">Target: helmet / construction safety</text>

  <path d="M271 349 C280 349, 280 349, 284 349" class="flow-line"/>
  <path d="M168 276 L168 294" class="flow-line"/>
  <path d="M392 276 L392 294" class="flow-line"/>

  <rect x="56" y="428" width="214" height="214" rx="18" class="node"/>
  <text x="74" y="456" class="card-title">4. Task Profile</text>
  <text x="74" y="483" class="card-text">Task Description</text>
  <text x="74" y="505" class="small">Train a YOLO-style helmet detector</text>
  <text x="74" y="524" class="small">for construction scenes with mAP@50</text>
  <text x="74" y="543" class="small">target ≥ 0.80 and low training cost.</text>
  <text x="74" y="577" class="card-text">Data Requirements</text>
  <rect x="74" y="592" width="84" height="26" rx="13" class="chip-muted"/>
  <text x="92" y="609" class="micro">bbox labels</text>
  <rect x="165" y="592" width="98" height="26" rx="13" class="chip-muted"/>
  <text x="186" y="609" class="micro">construction</text>
  <rect x="74" y="622" width="92" height="26" rx="13" class="chip-muted"/>
  <text x="96" y="639" class="micro">helmet class</text>
  <rect x="172" y="622" width="82" height="26" rx="13" class="chip-muted"/>
  <text x="194" y="639" class="micro">diversity</text>

  <rect x="284" y="428" width="244" height="100" rx="18" class="node"/>
  <text x="302" y="456" class="card-title">5. Discovery Preparation</text>
  <text x="302" y="482" class="card-text">Generated Keywords</text>
  <rect x="302" y="494" width="64" height="24" rx="12" class="chip"/>
  <text x="319" y="510" class="micro">helmet</text>
  <rect x="372" y="494" width="76" height="24" rx="12" class="chip"/>
  <text x="389" y="510" class="micro">worker</text>
  <rect x="454" y="494" width="57" height="24" rx="12" class="chip"/>
  <text x="469" y="510" class="micro">PPE</text>
  <rect x="302" y="524" width="98" height="24" rx="12" class="chip"/>
  <text x="322" y="540" class="micro">construction</text>
  <rect x="406" y="524" width="94" height="24" rx="12" class="chip"/>
  <text x="425" y="540" class="micro">bbox labels</text>

  <rect x="284" y="542" width="244" height="100" rx="18" class="node"/>
  <text x="302" y="570" class="card-title">6. Generated Code Artifact</text>
  <text x="302" y="596" class="card-text">Training template</text>
  <text x="302" y="617" class="mono">model: yolov8n   format: COCO/YOLO</text>
  <text x="302" y="636" class="mono">metric target: mAP@50   budget: $10</text>

  <path d="M392 404 L392 428" class="flow-line"/>
  <path d="M392 404 C392 418, 220 418, 220 428" class="flow-line"/>
  <circle cx="392" cy="404" r="4" fill="#3C6E7D"/>
  <text x="308" y="420" class="micro">parallel branches</text>

  <rect x="568" y="118" width="1000" height="560" rx="24" class="phase"/>
  <text x="592" y="154" class="panel-kicker">Phase 2</text>
  <text x="592" y="184" class="panel-title">Code-Aware Data Valuation &amp; Execution</text>

  <rect x="592" y="210" width="280" height="444" rx="18" fill="#FBF8F1" class="soft-border"/>
  <text x="614" y="238" class="card-title">Candidate Datasets</text>
  <text x="614" y="259" class="small">Shortlist from public + decentralized sources</text>

  <rect x="614" y="279" width="236" height="54" rx="14" fill="#DDEDEA" stroke="#2E7C6B" stroke-width="1.4"/>
  <text x="632" y="301" class="card-title">SafeHat_Premium</text>
  <text x="632" y="320" class="small">DID seller · $10 · rating 4.8</text>
  <rect x="770" y="292" width="60" height="24" rx="12" fill="#0F7A67"/>
  <text x="785" y="308" class="selected-text">selected</text>

  <rect x="614" y="343" width="236" height="48" rx="14" class="table-row"/>
  <text x="632" y="364" class="card-text">Kaggle_Construction</text>
  <text x="632" y="381" class="micro">public · free · lower label quality</text>

  <rect x="614" y="399" width="236" height="48" rx="14" class="table-row"/>
  <text x="632" y="420" class="card-text">Kaggle_Helmets_v2</text>
  <text x="632" y="437" class="micro">public · free · narrower scene coverage</text>

  <rect x="614" y="455" width="236" height="48" rx="14" class="table-row"/>
  <text x="632" y="476" class="card-text">BT_SafetyFrames</text>
  <text x="632" y="493" class="micro">torrent source · unknown provenance</text>

  <rect x="614" y="511" width="236" height="48" rx="14" class="table-row"/>
  <text x="632" y="532" class="card-text">Warehouse_PPE_Set</text>
  <text x="632" y="549" class="micro">private seller · $7 · moderate rating</text>

  <rect x="614" y="578" width="236" height="54" rx="14" fill="#F4EFE3" stroke="#B4BBB2" stroke-width="1.1"/>
  <text x="632" y="600" class="card-title">Why this list exists</text>
  <text x="632" y="619" class="micro">keywords + resource-aware intent profile</text>

  <rect x="888" y="210" width="364" height="444" rx="18" fill="#FBF8F1" class="soft-border"/>
  <text x="912" y="238" class="card-title">Valuation Evidence</text>
  <text x="912" y="259" class="small">Code, data quality, and market memory drive the score</text>

  <text x="912" y="322" class="score">92/100</text>
  <text x="912" y="346" class="score-label">Task Fitness Score</text>

  <rect x="1090" y="289" width="132" height="92" rx="16" fill="#E6F0F0" stroke="#87A7A8" stroke-width="1.1"/>
  <polygon points="1156,303 1201,326 1184,370 1128,370 1111,326" fill="none" stroke="#7A98A0" stroke-width="1.2"/>
  <polygon points="1156,314 1186,329 1176,357 1136,357 1126,329" fill="rgba(15,122,103,0.18)" stroke="#0F7A67" stroke-width="2"/>
  <text x="1120" y="398" class="micro">schema | labels | quality | temporal | diversity</text>

  <text x="912" y="392" class="card-text">Fast-DataShapley value proxy</text>
  <text x="1110" y="392" class="metric ok">ROI +12%</text>

  <rect x="912" y="414" width="300" height="20" rx="10" fill="#E6E7DE"/>
  <rect x="912" y="414" width="252" height="20" rx="10" fill="#0F7A67"/>
  <text x="918" y="428" class="micro" fill="#F5F4EE">Schema Fit</text>
  <text x="1218" y="428" class="micro">84</text>

  <rect x="912" y="444" width="300" height="20" rx="10" fill="#E6E7DE"/>
  <rect x="912" y="444" width="270" height="20" rx="10" fill="#2F8A8E"/>
  <text x="918" y="458" class="micro" fill="#F5F4EE">Label Quality</text>
  <text x="1218" y="458" class="micro">90</text>

  <rect x="912" y="474" width="300" height="20" rx="10" fill="#E6E7DE"/>
  <rect x="912" y="474" width="243" height="20" rx="10" fill="#3B9FB3"/>
  <text x="918" y="488" class="micro" fill="#F5F4EE">Domain Relevance</text>
  <text x="1218" y="488" class="micro">81</text>

  <rect x="912" y="504" width="300" height="20" rx="10" fill="#E6E7DE"/>
  <rect x="912" y="504" width="219" height="20" rx="10" fill="#6C9E73"/>
  <text x="918" y="518" class="micro" fill="#F5F4EE">Diversity Gain</text>
  <text x="1218" y="518" class="micro">73</text>

  <rect x="912" y="534" width="300" height="20" rx="10" fill="#E6E7DE"/>
  <rect x="912" y="534" width="234" height="20" rx="10" fill="#CC9A3B"/>
  <text x="918" y="548" class="micro" fill="#F5F4EE">Expected Training Lift</text>
  <text x="1218" y="548" class="micro">78</text>

  <rect x="912" y="564" width="300" height="20" rx="10" fill="#E6E7DE"/>
  <rect x="912" y="564" width="195" height="20" rx="10" fill="#B2584B"/>
  <text x="918" y="578" class="micro" fill="#F5F4EE">Cost Pressure</text>
  <text x="1218" y="578" class="micro">65</text>

  <rect x="912" y="594" width="300" height="20" rx="10" fill="#E6E7DE"/>
  <rect x="912" y="594" width="258" height="20" rx="10" fill="#417A93"/>
  <text x="918" y="608" class="micro" fill="#F5F4EE">On-chain Reputation</text>
  <text x="1218" y="608" class="micro">86</text>

  <rect x="1268" y="210" width="276" height="444" rx="18" fill="#FBF8F1" class="soft-border"/>
  <text x="1292" y="238" class="card-title">Recommendation &amp; Execution</text>
  <rect x="1292" y="262" width="228" height="92" rx="16" fill="#E3F1EA" stroke="#5B9B91" stroke-width="1.1"/>
  <text x="1312" y="288" class="card-title">Final Recommendation</text>
  <text x="1312" y="316" class="recommend-text">SafeHat_Premium</text>
  <text x="1312" y="338" class="small">Projected gain: +12% mAP</text>
  <text x="1438" y="338" class="small">$10</text>

  <rect x="1292" y="372" width="228" height="178" rx="16" fill="#F2F4EF" stroke="#B5B8B0" stroke-width="1.1"/>
  <text x="1312" y="398" class="card-title">Execution Trace</text>
  <text x="1312" y="423" class="mono">Generating training code ... done</text>
  <text x="1312" y="442" class="mono">Binding dataset schema ... done</text>
  <text x="1312" y="461" class="mono">Warm-starting training job ...</text>
  <text x="1312" y="480" class="mono">epoch 1/30  loss=1.09  mAP=0.42</text>
  <text x="1312" y="499" class="mono">epoch 8/30  loss=0.61  mAP=0.71</text>
  <text x="1312" y="518" class="mono">epoch 14/30 loss=0.44  mAP=0.81</text>

  <rect x="1312" y="532" width="188" height="10" rx="5" fill="#DFE3DA"/>
  <rect x="1312" y="532" width="156" height="10" rx="5" fill="#0F7A67"/>
  <text x="1312" y="564" class="metric">mAP@50 81.2%</text>
  <text x="1312" y="586" class="small">baseline 72.4% → gain +8.8 pts</text>

  <rect x="1292" y="568" width="228" height="64" rx="16" fill="#F7E8CD" stroke="#C58935" stroke-width="1.1"/>
  <text x="1312" y="594" class="card-title">Decision Summary</text>
  <text x="1312" y="616" class="small">Best value under budget with trusted asset history</text>

  <rect x="32" y="694" width="1536" height="274" rx="24" class="ledger"/>
  <text x="56" y="730" class="panel-kicker">Decentralized Layer</text>
  <text x="56" y="760" class="panel-title">Asset Ledger &amp; Feedback Loop</text>
  <text x="1148" y="760" class="small">Historical market memory feeds future ranking</text>

  <rect x="56" y="786" width="360" height="158" rx="18" fill="#FBF8F1" class="soft-border"/>
  <text x="78" y="814" class="card-title">Asset Source</text>
  <text x="78" y="840" class="small">Seller DID</text>
  <text x="160" y="840" class="mono">did:key:z6Mk...SafeHatSeller</text>
  <text x="78" y="865" class="small">Dataset CID</text>
  <text x="160" y="865" class="mono">bafybeifsafehatpremiumcid...</text>
  <text x="78" y="890" class="small">License</text>
  <text x="160" y="890" class="card-text">commercial / single-training use</text>
  <text x="78" y="915" class="small">Attestation</text>
  <text x="160" y="915" class="card-text">anchored on chain · verified metadata</text>
  <rect x="280" y="827" width="108" height="28" rx="14" class="chip"/>
  <text x="304" y="846" class="small">rating 4.8</text>
  <rect x="280" y="864" width="108" height="28" rx="14" class="chip-warm"/>
  <text x="308" y="883" class="small">$10 asset</text>

  <rect x="438" y="786" width="594" height="158" rx="18" fill="#FBF8F1" class="soft-border"/>
  <text x="460" y="814" class="card-title">Transaction Timeline</text>
  <rect x="460" y="828" width="550" height="24" rx="8" class="table-head"/>
  <text x="474" y="845" class="micro">Time</text>
  <text x="550" y="845" class="micro">Event</text>
  <text x="712" y="845" class="micro">Tx Hash</text>
  <text x="860" y="845" class="micro">Details</text>

  <rect x="460" y="858" width="550" height="26" rx="8" class="table-row"/>
  <text x="474" y="875" class="micro">10:30</text>
  <text x="550" y="875" class="micro">DatasetPublish</text>
  <text x="712" y="875" class="mono">0x81af...be42</text>
  <text x="860" y="875" class="micro">seller minted SafeHat_Premium</text>

  <rect x="460" y="888" width="550" height="26" rx="8" class="table-row"/>
  <text x="474" y="905" class="micro">10:34</text>
  <text x="550" y="905" class="micro">DatasetPurchase</text>
  <text x="712" y="905" class="mono">0x91de...13c0</text>
  <text x="860" y="905" class="micro">agent bought 1 training license</text>

  <rect x="460" y="918" width="550" height="26" rx="8" class="table-row"/>
  <text x="474" y="935" class="micro">10:43</text>
  <text x="550" y="935" class="micro">FeedbackAttest</text>
  <text x="712" y="935" class="mono">0xa4cf...991e</text>
  <text x="860" y="935" class="micro">positive task-fit feedback recorded</text>

  <rect x="1054" y="786" width="490" height="158" rx="18" fill="#FBF8F1" class="soft-border"/>
  <text x="1076" y="814" class="card-title">Feedback &amp; Reputation</text>

  <rect x="1076" y="830" width="446" height="44" rx="12" fill="#F4EFE3" stroke="#C8CBC2" stroke-width="1"/>
  <text x="1092" y="850" class="card-text">Agent review</text>
  <text x="1092" y="867" class="micro">High annotation quality and strong construction-scene coverage</text>
  <text x="1458" y="850" class="small">★★★★★</text>

  <rect x="1076" y="882" width="446" height="44" rx="12" fill="#F4EFE3" stroke="#C8CBC2" stroke-width="1"/>
  <text x="1092" y="902" class="card-text">Task-fit signal</text>
  <text x="1092" y="919" class="micro">Boosted mAP in safety-equipment detection workloads</text>
  <text x="1432" y="902" class="small ok">positive</text>

  <rect x="1076" y="934" width="446" height="10" rx="5" fill="#DFE3DA"/>
  <rect x="1076" y="934" width="382" height="10" rx="5" fill="#0F7A67"/>
  <text x="1076" y="958" class="small">Reputation memory reused by future search and valuation</text>
</svg>
